<svg id="visual" viewBox="0 0 960 540" width="960" height="540" xmlns="http://www.w3.org/2000/svg" xmlns:xlink="http://www.w3.org/1999/xlink" version="1.1"><rect x="0" y="0" width="960" height="540" fill="#3d3056"></rect><path d="M0 384L107 318L213 348L320 343L427 333L533 381L640 372L747 324L853 347L960 382L960 541L853 541L747 541L640 541L533 541L427 541L320 541L213 541L107 541L0 541Z" fill="#fbae3c"></path><path d="M0 371L107 393L213 369L320 374L427 367L533 401L640 369L747 392L853 419L960 357L960 541L853 541L747 541L640 541L533 541L427 541L320 541L213 541L107 541L0 541Z" fill="#fa9a44"></path><path d="M0 436L107 412L213 420L320 413L427 412L533 426L640 393L747 436L853 413L960 410L960 541L853 541L747 541L640 541L533 541L427 541L320 541L213 541L107 541L0 541Z" fill="#f6884d"></path><path d="M0 456L107 474L213 482L320 443L427 477L533 432L640 484L747 446L853 463L960 436L960 541L853 541L747 541L640 541L533 541L427 541L320 541L213 541L107 541L0 541Z" fill="#ed7756"></path><path d="M0 512L107 486L213 498L320 496L427 476L533 490L640 513L747 478L853 503L960 485L960 541L853 541L747 541L640 541L533 541L427 541L320 541L213 541L107 541L0 541Z" fill="#e1685e"></path></svg>